<?xml version="1.0" standalone="no"?>
<!DOCTYPE svg PUBLIC "-//W3C//DTD SVG 20010904//EN"
 "http://www.w3.org/TR/2001/REC-SVG-20010904/DTD/svg10.dtd">
<svg version="1.0" xmlns="http://www.w3.org/2000/svg"
 width="258.000000pt" height="258.000000pt" viewBox="0 0 258.000000 258.000000"
 preserveAspectRatio="xMidYMid meet">
<metadata>
Created by potrace 1.11, written by Peter Selinger 2001-2013
</metadata>
<g transform="translate(0.000000,258.000000) scale(0.100000,-0.100000)"
fill="#000000" stroke="none">
<path d="M1135 2404 c-120 -18 -241 -50 -290 -77 -11 -6 -22 -12 -25 -12 -3 0
-36 -16 -73 -35 -230 -118 -449 -372 -527 -615 -12 -38 -25 -77 -28 -85 -3 -8
-7 -22 -8 -30 -1 -8 -5 -26 -9 -40 -28 -111 -24 -415 6 -472 6 -10 7 -18 3
-18 -3 0 -1 -7 6 -15 7 -8 10 -15 7 -15 -6 0 30 -106 58 -174 18 -41 99 -176
130 -216 79 -99 223 -227 315 -279 100 -57 221 -108 300 -126 8 -2 15 -4 15
-5 0 -1 9 -3 20 -5 11 -2 36 -7 55 -10 53 -11 313 -15 356 -5 22 5 53 11 69
14 57 10 90 18 100 24 6 4 15 7 20 9 64 13 215 90 311 159 85 60 197 172 254
254 13 19 27 37 30 40 23 18 130 264 144 332 3 13 10 42 16 66 6 24 8 47 5 52
-3 5 -1 11 4 14 11 7 8 303 -3 351 -15 62 -35 137 -38 140 -2 2 -37 5 -78 9
-41 3 -94 8 -117 12 -46 6 -49 4 -33 -27 10 -17 13 -18 38 -5 24 12 30 12 47
0 33 -24 30 -61 -7 -92 -18 -15 -41 -36 -52 -46 -37 -37 -62 -29 -118 36 -29
34 -70 79 -90 101 -40 42 -45 56 -28 88 11 19 2 25 -25 19 -49 -11 -65 -8 -99
15 -46 31 -61 32 -45 4 9 -17 8 -23 -2 -30 -10 -7 -23 1 -44 23 -16 18 -37 39
-47 46 -20 16 -68 25 -68 13 0 -9 60 -37 73 -33 11 3 8 -21 -5 -51 -7 -15 -19
-27 -25 -27 -19 0 -16 31 3 45 15 10 11 14 -27 29 -85 35 -115 28 -154 -33
-31 -50 -67 -74 -107 -73 -38 1 -48 15 -41 61 7 45 5 44 56 50 28 4 42 11 42
21 0 8 -4 15 -10 16 -5 0 -18 4 -29 9 -17 8 -17 9 5 26 13 10 29 19 34 19 12
0 95 79 95 90 0 5 -5 10 -11 12 -7 2 -6 8 4 17 13 10 19 9 37 -12 19 -22 26
-24 51 -15 16 5 39 24 51 41 12 18 31 40 42 50 21 17 20 18 -16 11 -30 -5 -39
-3 -44 11 -4 9 -2 21 5 28 23 23 10 30 -14 7 -20 -19 -25 -33 -25 -71 0 -54
-13 -70 -32 -39 -9 14 -23 20 -50 20 -21 0 -44 7 -53 17 -16 15 -15 18 15 41
18 14 39 40 46 59 24 55 62 71 166 69 66 -1 92 -6 98 -16 12 -19 -15 -41 -38
-33 -10 4 -13 2 -8 -5 4 -7 15 -12 25 -12 20 0 55 33 45 43 -3 3 -3 11 1 18 6
8 10 7 17 -4 8 -15 11 -14 28 3 11 11 33 20 48 20 46 0 45 11 -4 41 -93 59
-184 99 -309 135 -132 38 -304 49 -440 28z m148 -113 c8 -8 -3 -11 -38 -12
-104 -1 -269 -36 -337 -70 -21 -11 -38 -17 -38 -14 0 3 -18 -6 -40 -20 -22
-14 -42 -25 -45 -25 -3 0 -32 -19 -66 -41 -82 -57 -187 -160 -246 -244 -50
-71 -124 -216 -138 -270 -5 -16 -9 -32 -10 -35 -2 -6 -23 -105 -30 -140 -10
-47 -8 -225 3 -280 7 -30 14 -66 16 -80 13 -65 18 -82 37 -127 64 -153 143
-270 246 -366 172 -162 393 -258 626 -272 27 -2 54 -8 60 -15 23 -24 -171 -2
-288 32 -264 77 -495 269 -621 516 -108 214 -138 478 -79 702 9 36 18 72 20
81 2 9 24 59 48 110 103 216 270 383 482 484 92 44 226 82 318 92 29 3 53 6
55 8 7 6 56 -5 65 -14z m256 6 c-9 -7 -14 -17 -12 -23 2 -6 -9 -11 -27 -12
-16 0 -39 -3 -49 -7 -11 -3 -22 -2 -25 3 -9 15 19 33 53 36 17 1 34 5 37 9 4
4 14 7 23 7 15 -1 15 -2 0 -13z m-258 -56 c1 -3 2 -162 2 -354 1 -223 6 -347
12 -347 6 0 11 11 13 25 2 15 15 32 33 42 16 10 29 20 29 23 0 3 9 6 20 7 11
1 35 9 53 18 17 9 55 19 83 22 44 4 54 2 72 -17 25 -27 91 -33 147 -13 65 23
123 14 166 -24 20 -19 44 -48 53 -66 20 -41 54 -80 87 -101 37 -23 87 -37 94
-25 4 5 15 9 26 9 20 0 25 -19 10 -35 -4 -6 -14 -32 -21 -60 -7 -27 -24 -70
-39 -95 -14 -25 -24 -56 -22 -70 10 -78 5 -120 -22 -183 -16 -38 -42 -122 -37
-122 5 0 -43 -90 -63 -118 -43 -62 -113 -79 -135 -34 -61 130 -73 164 -74 225
-1 57 -6 72 -41 125 -22 34 -41 68 -42 77 -2 8 -4 17 -5 20 -2 4 -3 17 -8 72
-2 17 -11 17 -101 3 -19 -3 -56 -19 -82 -35 -62 -38 -114 -48 -137 -27 -10 9
-39 26 -65 37 -51 23 -71 48 -60 77 11 31 34 52 51 46 10 -4 13 -2 8 5 -19 32
-77 -12 -78 -59 -1 -31 3 -36 68 -88 6 -5 10 -22 10 -38 -2 -38 -33 -42 -83
-10 -61 38 -72 58 -77 137 -5 66 66 150 126 150 28 0 48 57 23 66 -12 5 -21
39 -31 119 -1 11 -3 20 -4 20 -1 0 -4 11 -6 25 -2 14 -12 63 -20 110 -17 87
-19 100 -28 160 -3 19 -8 46 -11 60 -3 14 -8 43 -10 64 -3 21 -8 42 -10 46 -3
4 -7 25 -10 45 -2 21 -7 45 -10 55 -3 11 2 20 15 26 23 10 129 14 131 5z
m-176 -26 c1 -12 17 -104 22 -125 7 -30 16 -85 17 -107 1 -13 3 -23 6 -23 3 0
6 -8 6 -17 1 -10 4 -29 6 -43 3 -14 9 -45 13 -70 4 -25 9 -54 12 -65 4 -18 7
-37 17 -100 2 -11 9 -51 16 -89 10 -57 10 -70 -1 -77 -17 -11 -59 -23 -63 -18
-17 24 -145 211 -159 232 -10 16 -22 34 -27 40 -23 28 -100 138 -100 142 0 3
-5 11 -10 18 -6 7 -35 47 -65 90 l-55 77 48 30 c26 17 57 33 70 36 12 3 22 10
22 15 0 5 3 8 8 7 4 -1 17 3 30 10 12 7 22 11 22 8 0 -2 28 6 63 18 65 24 102
28 102 11z m-361 -183 c3 -9 37 -62 76 -117 39 -55 94 -134 122 -175 28 -41
55 -76 60 -78 4 -2 8 -9 8 -14 0 -6 18 -35 40 -64 22 -29 40 -56 40 -59 0 -3
9 -15 20 -27 21 -23 26 -53 11 -62 -9 -6 -273 170 -279 186 -2 5 -8 8 -13 8
-11 0 -72 42 -77 53 -2 4 -10 7 -17 7 -7 0 -15 3 -17 8 -1 4 -30 25 -63 47
-64 43 -78 53 -100 73 -7 6 -18 12 -24 12 -20 0 -22 21 -5 47 20 31 116 129
157 160 30 24 52 22 61 -5z m610 -77 c3 -8 17 -20 30 -26 43 -20 44 -55 2 -75
-33 -16 -50 -3 -42 31 5 21 2 32 -14 47 -21 20 -19 38 5 38 7 0 15 -7 19 -15z
m-773 -193 c46 -32 143 -98 214 -147 72 -49 135 -94 142 -100 6 -5 43 -30 81
-55 39 -25 71 -51 71 -58 1 -7 -5 -26 -13 -41 l-15 -28 -63 13 c-35 7 -76 16
-93 19 -60 10 -179 32 -220 40 -11 3 -36 7 -55 9 -19 3 -45 7 -56 10 -12 2
-39 7 -60 11 -22 4 -48 9 -59 11 -11 2 -31 5 -45 7 -62 9 -72 17 -64 50 3 18
13 50 21 72 8 22 15 45 17 50 15 51 92 195 105 195 4 0 45 -26 92 -58z m987
-32 c3 -21 2 -22 -12 -11 -19 16 -21 44 -3 39 6 -3 14 -15 15 -28z m-1177
-304 c52 -7 73 -10 204 -36 101 -19 138 -26 198 -35 17 -3 53 -10 78 -16 25
-6 50 -9 55 -8 5 1 11 0 14 -1 10 -4 36 -9 70 -15 80 -14 71 -48 -15 -59 -27
-4 -57 -9 -65 -11 -8 -2 -31 -6 -50 -9 -50 -8 -85 -14 -173 -32 -42 -8 -89
-17 -102 -20 -14 -2 -37 -6 -52 -9 -16 -3 -48 -8 -73 -11 -25 -3 -48 -8 -51
-10 -3 -1 -26 -6 -52 -9 -54 -8 -49 -24 -51 150 -2 106 2 147 13 140 4 -2 27
-6 52 -9z m690 -221 c18 -39 22 -35 -86 -108 -38 -26 -90 -61 -115 -78 -25
-18 -88 -61 -140 -97 -52 -36 -130 -90 -173 -120 -43 -30 -79 -53 -81 -51 -38
42 -127 244 -141 320 l-7 35 89 18 c48 9 101 19 118 21 16 3 65 11 110 19 44
9 91 17 105 20 14 2 41 7 60 11 19 3 44 8 55 10 11 2 20 4 20 5 0 1 17 4 39 6
21 3 55 9 75 13 54 13 55 13 72 -24z m47 -78 c10 -12 -16 -57 -95 -162 -5 -6
-41 -60 -82 -120 -41 -61 -77 -112 -81 -115 -3 -3 -31 -43 -63 -90 -31 -47
-65 -95 -75 -108 l-18 -23 -49 43 c-28 24 -60 54 -71 68 -12 14 -36 40 -53 59
-38 43 -39 53 -3 69 16 6 37 20 48 30 34 30 112 82 123 82 6 0 11 3 11 8 0 4
30 27 68 52 37 24 69 47 72 50 3 3 28 20 55 37 28 18 60 41 73 53 12 11 22 18
22 15 0 -3 21 10 48 30 53 39 56 40 70 22z m1095 -31 c3 -7 1 -31 -4 -52 -4
-22 -9 -58 -9 -80 0 -39 -11 -54 -40 -54 -14 0 -22 38 -12 57 6 10 12 37 16
60 8 63 36 102 49 69z m-1024 -12 c33 -17 35 -26 16 -124 -12 -60 -15 -76 -20
-115 -3 -22 -8 -48 -11 -58 -4 -11 -7 -29 -9 -40 -2 -19 -36 -207 -50 -277 -3
-14 -8 -41 -11 -60 -12 -74 -8 -70 -77 -50 -34 9 -79 24 -99 33 -21 9 -38 14
-38 12 0 -2 -26 11 -57 29 -32 17 -66 35 -75 39 -21 7 -23 32 -5 52 19 22 29
36 82 115 57 86 240 350 252 365 4 6 21 29 37 53 16 23 30 42 31 42 1 0 16 -7
34 -16z m85 -384 c0 -198 -3 -363 -7 -367 -8 -7 -84 -4 -139 6 -4 0 -5 11 -2
24 2 12 7 37 10 56 3 18 8 43 10 55 2 11 7 37 10 56 3 19 7 43 10 52 5 18 8
32 18 98 3 19 8 46 11 60 3 14 7 39 10 55 2 17 11 66 20 110 9 44 17 90 17
103 0 12 4 25 9 28 4 2 6 11 2 19 -3 10 -1 13 8 10 12 -4 14 -70 13 -365z"/>
</g>
</svg>
